<mxfile host="Electron" agent="Mozilla/5.0 (Windows NT 10.0; Win64; x64) AppleWebKit/537.36 (KHTML, like Gecko) draw.io/28.0.6 Chrome/138.0.7204.100 Electron/37.2.3 Safari/537.36" version="28.0.6">
  <diagram name="Page-1" id="OCTq3GqB6JhlPOIXX3zH">
    <mxGraphModel dx="2742" dy="1726" grid="1" gridSize="10" guides="1" tooltips="1" connect="1" arrows="1" fold="1" page="1" pageScale="1" pageWidth="850" pageHeight="1100" math="0" shadow="0">
      <root>
        <mxCell id="0" />
        <mxCell id="1" parent="0" />
        <mxCell id="-aByIsQMcpLO_UhY7JY4-1" value="&lt;font style=&quot;font-size: 31px;&quot;&gt;Data Flow Diagram&lt;/font&gt;" style="text;html=1;align=center;verticalAlign=middle;whiteSpace=wrap;rounded=0;" parent="1" vertex="1">
          <mxGeometry x="-860" y="-10" width="340" height="80" as="geometry" />
        </mxCell>
        <mxCell id="-aByIsQMcpLO_UhY7JY4-3" value="" style="rounded=0;whiteSpace=wrap;html=1;fillColor=none;dashed=1;" parent="1" vertex="1">
          <mxGeometry x="-800" y="180" width="160" height="380" as="geometry" />
        </mxCell>
        <mxCell id="TbmxW1kQvGBRHv69Jx9r-1" value="&lt;font style=&quot;font-size: 20px;&quot;&gt;Sources&lt;/font&gt;" style="rounded=1;whiteSpace=wrap;html=1;strokeColor=none;" parent="1" vertex="1">
          <mxGeometry x="-771.61" y="160" width="100" height="40" as="geometry" />
        </mxCell>
        <mxCell id="TbmxW1kQvGBRHv69Jx9r-13" style="edgeStyle=orthogonalEdgeStyle;rounded=0;orthogonalLoop=1;jettySize=auto;html=1;entryX=0;entryY=0.5;entryDx=0;entryDy=0;" parent="1" source="TbmxW1kQvGBRHv69Jx9r-2" target="TbmxW1kQvGBRHv69Jx9r-10" edge="1">
          <mxGeometry relative="1" as="geometry" />
        </mxCell>
        <mxCell id="TbmxW1kQvGBRHv69Jx9r-14" style="edgeStyle=orthogonalEdgeStyle;rounded=0;orthogonalLoop=1;jettySize=auto;html=1;entryX=0;entryY=0.5;entryDx=0;entryDy=0;" parent="1" source="TbmxW1kQvGBRHv69Jx9r-2" target="TbmxW1kQvGBRHv69Jx9r-11" edge="1">
          <mxGeometry relative="1" as="geometry" />
        </mxCell>
        <mxCell id="TbmxW1kQvGBRHv69Jx9r-15" style="edgeStyle=orthogonalEdgeStyle;rounded=0;orthogonalLoop=1;jettySize=auto;html=1;entryX=0;entryY=0.5;entryDx=0;entryDy=0;" parent="1" source="TbmxW1kQvGBRHv69Jx9r-2" target="TbmxW1kQvGBRHv69Jx9r-12" edge="1">
          <mxGeometry relative="1" as="geometry" />
        </mxCell>
        <mxCell id="TbmxW1kQvGBRHv69Jx9r-2" value="" style="image;aspect=fixed;html=1;points=[];align=center;fontSize=12;image=img/lib/azure2/general/Folder_Blank.svg;" parent="1" vertex="1">
          <mxGeometry x="-750.8" y="280" width="60.81" height="49.35" as="geometry" />
        </mxCell>
        <mxCell id="TbmxW1kQvGBRHv69Jx9r-3" value="&lt;font style=&quot;font-size: 16px;&quot;&gt;CRM&lt;/font&gt;" style="text;html=1;align=center;verticalAlign=middle;whiteSpace=wrap;rounded=0;" parent="1" vertex="1">
          <mxGeometry x="-750.8" y="330" width="60" height="30" as="geometry" />
        </mxCell>
        <mxCell id="TbmxW1kQvGBRHv69Jx9r-19" style="edgeStyle=orthogonalEdgeStyle;rounded=0;orthogonalLoop=1;jettySize=auto;html=1;entryX=0;entryY=0.5;entryDx=0;entryDy=0;" parent="1" source="TbmxW1kQvGBRHv69Jx9r-4" target="TbmxW1kQvGBRHv69Jx9r-16" edge="1">
          <mxGeometry relative="1" as="geometry" />
        </mxCell>
        <mxCell id="TbmxW1kQvGBRHv69Jx9r-20" style="edgeStyle=orthogonalEdgeStyle;rounded=0;orthogonalLoop=1;jettySize=auto;html=1;entryX=0;entryY=0.5;entryDx=0;entryDy=0;" parent="1" source="TbmxW1kQvGBRHv69Jx9r-4" target="TbmxW1kQvGBRHv69Jx9r-17" edge="1">
          <mxGeometry relative="1" as="geometry" />
        </mxCell>
        <mxCell id="TbmxW1kQvGBRHv69Jx9r-21" style="edgeStyle=orthogonalEdgeStyle;rounded=0;orthogonalLoop=1;jettySize=auto;html=1;entryX=0;entryY=0.5;entryDx=0;entryDy=0;" parent="1" source="TbmxW1kQvGBRHv69Jx9r-4" target="TbmxW1kQvGBRHv69Jx9r-18" edge="1">
          <mxGeometry relative="1" as="geometry" />
        </mxCell>
        <mxCell id="TbmxW1kQvGBRHv69Jx9r-4" value="" style="image;aspect=fixed;html=1;points=[];align=center;fontSize=12;image=img/lib/azure2/general/Folder_Blank.svg;" parent="1" vertex="1">
          <mxGeometry x="-752.4100000000001" y="440" width="61.61" height="50" as="geometry" />
        </mxCell>
        <mxCell id="TbmxW1kQvGBRHv69Jx9r-5" value="&lt;span style=&quot;font-size: 16px;&quot;&gt;ERP&lt;/span&gt;" style="text;html=1;align=center;verticalAlign=middle;whiteSpace=wrap;rounded=0;" parent="1" vertex="1">
          <mxGeometry x="-752.4099999999999" y="490" width="60.81" height="30" as="geometry" />
        </mxCell>
        <mxCell id="TbmxW1kQvGBRHv69Jx9r-7" value="" style="rounded=1;whiteSpace=wrap;html=1;fillColor=none;strokeColor=#FFD966;" parent="1" vertex="1">
          <mxGeometry x="-560" y="220" width="160" height="340" as="geometry" />
        </mxCell>
        <mxCell id="TbmxW1kQvGBRHv69Jx9r-8" value="&lt;font style=&quot;font-size: 20px;&quot;&gt;Bronze Layer&lt;/font&gt;" style="rounded=1;whiteSpace=wrap;html=1;fillColor=#e3c800;strokeColor=#B09500;glass=0;shadow=0;fillStyle=auto;fontColor=#000000;" parent="1" vertex="1">
          <mxGeometry x="-560" y="180" width="160" height="30" as="geometry" />
        </mxCell>
        <mxCell id="7J3vk4l10xJQg3FWzx_3-9" style="edgeStyle=orthogonalEdgeStyle;rounded=0;orthogonalLoop=1;jettySize=auto;html=1;entryX=0;entryY=0.5;entryDx=0;entryDy=0;" parent="1" source="TbmxW1kQvGBRHv69Jx9r-10" target="7J3vk4l10xJQg3FWzx_3-3" edge="1">
          <mxGeometry relative="1" as="geometry" />
        </mxCell>
        <mxCell id="TbmxW1kQvGBRHv69Jx9r-10" value="&lt;font style=&quot;font-size: 15px;&quot;&gt;crm_sales_details&lt;/font&gt;" style="rounded=1;whiteSpace=wrap;html=1;fillColor=#e3c800;strokeColor=#B09500;glass=0;shadow=0;fillStyle=auto;fontColor=#000000;" parent="1" vertex="1">
          <mxGeometry x="-550" y="250" width="140" height="30" as="geometry" />
        </mxCell>
        <mxCell id="7J3vk4l10xJQg3FWzx_3-10" style="edgeStyle=orthogonalEdgeStyle;rounded=0;orthogonalLoop=1;jettySize=auto;html=1;" parent="1" source="TbmxW1kQvGBRHv69Jx9r-11" target="7J3vk4l10xJQg3FWzx_3-4" edge="1">
          <mxGeometry relative="1" as="geometry" />
        </mxCell>
        <mxCell id="TbmxW1kQvGBRHv69Jx9r-11" value="&lt;font style=&quot;font-size: 15px;&quot;&gt;crm_cust_info&lt;/font&gt;" style="rounded=1;whiteSpace=wrap;html=1;fillColor=#e3c800;strokeColor=#B09500;glass=0;shadow=0;fillStyle=auto;fontColor=#000000;" parent="1" vertex="1">
          <mxGeometry x="-550" y="290" width="140" height="30" as="geometry" />
        </mxCell>
        <mxCell id="7J3vk4l10xJQg3FWzx_3-11" style="edgeStyle=orthogonalEdgeStyle;rounded=0;orthogonalLoop=1;jettySize=auto;html=1;entryX=0;entryY=0.5;entryDx=0;entryDy=0;" parent="1" source="TbmxW1kQvGBRHv69Jx9r-12" target="7J3vk4l10xJQg3FWzx_3-5" edge="1">
          <mxGeometry relative="1" as="geometry" />
        </mxCell>
        <mxCell id="TbmxW1kQvGBRHv69Jx9r-12" value="&lt;font style=&quot;font-size: 15px;&quot;&gt;crm_product_info&lt;/font&gt;" style="rounded=1;whiteSpace=wrap;html=1;fillColor=#e3c800;strokeColor=#B09500;glass=0;shadow=0;fillStyle=auto;fontColor=#000000;" parent="1" vertex="1">
          <mxGeometry x="-550" y="330" width="140" height="30" as="geometry" />
        </mxCell>
        <mxCell id="7J3vk4l10xJQg3FWzx_3-12" style="edgeStyle=orthogonalEdgeStyle;rounded=0;orthogonalLoop=1;jettySize=auto;html=1;" parent="1" source="TbmxW1kQvGBRHv69Jx9r-16" target="7J3vk4l10xJQg3FWzx_3-6" edge="1">
          <mxGeometry relative="1" as="geometry" />
        </mxCell>
        <mxCell id="TbmxW1kQvGBRHv69Jx9r-16" value="&lt;span style=&quot;font-size: 15px;&quot;&gt;erp_CUST_AZ12&lt;/span&gt;" style="rounded=1;whiteSpace=wrap;html=1;fillColor=#e3c800;strokeColor=#B09500;glass=0;shadow=0;fillStyle=auto;fontColor=#000000;" parent="1" vertex="1">
          <mxGeometry x="-550" y="410" width="140" height="30" as="geometry" />
        </mxCell>
        <mxCell id="7J3vk4l10xJQg3FWzx_3-13" style="edgeStyle=orthogonalEdgeStyle;rounded=0;orthogonalLoop=1;jettySize=auto;html=1;" parent="1" source="TbmxW1kQvGBRHv69Jx9r-17" target="7J3vk4l10xJQg3FWzx_3-7" edge="1">
          <mxGeometry relative="1" as="geometry" />
        </mxCell>
        <mxCell id="TbmxW1kQvGBRHv69Jx9r-17" value="&lt;span style=&quot;font-size: 15px;&quot;&gt;erp_LOC_A101&lt;/span&gt;" style="rounded=1;whiteSpace=wrap;html=1;fillColor=#e3c800;strokeColor=#B09500;glass=0;shadow=0;fillStyle=auto;fontColor=#000000;" parent="1" vertex="1">
          <mxGeometry x="-550" y="450" width="140" height="30" as="geometry" />
        </mxCell>
        <mxCell id="7J3vk4l10xJQg3FWzx_3-14" style="edgeStyle=orthogonalEdgeStyle;rounded=0;orthogonalLoop=1;jettySize=auto;html=1;entryX=0;entryY=0.5;entryDx=0;entryDy=0;" parent="1" source="TbmxW1kQvGBRHv69Jx9r-18" target="7J3vk4l10xJQg3FWzx_3-8" edge="1">
          <mxGeometry relative="1" as="geometry" />
        </mxCell>
        <mxCell id="TbmxW1kQvGBRHv69Jx9r-18" value="&lt;span style=&quot;font-size: 15px;&quot;&gt;erp_PX_CAT_G1V2&lt;/span&gt;" style="rounded=1;whiteSpace=wrap;html=1;fillColor=#e3c800;strokeColor=#B09500;glass=0;shadow=0;fillStyle=auto;fontColor=#000000;" parent="1" vertex="1">
          <mxGeometry x="-550" y="490" width="140" height="30" as="geometry" />
        </mxCell>
        <mxCell id="7J3vk4l10xJQg3FWzx_3-1" value="" style="rounded=1;whiteSpace=wrap;html=1;fillColor=none;strokeColor=#666666;gradientColor=#b3b3b3;" parent="1" vertex="1">
          <mxGeometry x="-320" y="220" width="160" height="340" as="geometry" />
        </mxCell>
        <mxCell id="7J3vk4l10xJQg3FWzx_3-2" value="&lt;font style=&quot;font-size: 20px;&quot;&gt;Silver Layer&lt;/font&gt;" style="rounded=1;whiteSpace=wrap;html=1;fillColor=default;strokeColor=#666666;glass=0;shadow=0;fillStyle=auto;gradientColor=none;gradientDirection=radial;" parent="1" vertex="1">
          <mxGeometry x="-320" y="180" width="160" height="30" as="geometry" />
        </mxCell>
        <mxCell id="7J3vk4l10xJQg3FWzx_3-3" value="&lt;font style=&quot;font-size: 15px;&quot;&gt;crm_sales_details&lt;/font&gt;" style="rounded=1;whiteSpace=wrap;html=1;glass=0;shadow=0;fillStyle=auto;" parent="1" vertex="1">
          <mxGeometry x="-310" y="250" width="140" height="30" as="geometry" />
        </mxCell>
        <mxCell id="7J3vk4l10xJQg3FWzx_3-4" value="&lt;font style=&quot;font-size: 15px;&quot;&gt;crm_cust_info&lt;/font&gt;" style="rounded=1;whiteSpace=wrap;html=1;glass=0;shadow=0;fillStyle=auto;" parent="1" vertex="1">
          <mxGeometry x="-310" y="290" width="140" height="30" as="geometry" />
        </mxCell>
        <mxCell id="7J3vk4l10xJQg3FWzx_3-5" value="&lt;font style=&quot;font-size: 15px;&quot;&gt;crm_product_info&lt;/font&gt;" style="rounded=1;whiteSpace=wrap;html=1;glass=0;shadow=0;fillStyle=auto;" parent="1" vertex="1">
          <mxGeometry x="-310" y="330" width="140" height="30" as="geometry" />
        </mxCell>
        <mxCell id="7J3vk4l10xJQg3FWzx_3-6" value="&lt;span style=&quot;font-size: 15px;&quot;&gt;erp_CUST_AZ12&lt;/span&gt;" style="rounded=1;whiteSpace=wrap;html=1;glass=0;shadow=0;fillStyle=auto;" parent="1" vertex="1">
          <mxGeometry x="-310" y="410" width="140" height="30" as="geometry" />
        </mxCell>
        <mxCell id="7J3vk4l10xJQg3FWzx_3-7" value="&lt;span style=&quot;font-size: 15px;&quot;&gt;erp_LOC_A101&lt;/span&gt;" style="rounded=1;whiteSpace=wrap;html=1;glass=0;shadow=0;fillStyle=auto;" parent="1" vertex="1">
          <mxGeometry x="-310" y="450" width="140" height="30" as="geometry" />
        </mxCell>
        <mxCell id="7J3vk4l10xJQg3FWzx_3-8" value="&lt;span style=&quot;font-size: 15px;&quot;&gt;erp_PX_CAT_G1V2&lt;/span&gt;" style="rounded=1;whiteSpace=wrap;html=1;glass=0;shadow=0;fillStyle=auto;" parent="1" vertex="1">
          <mxGeometry x="-310" y="490" width="140" height="30" as="geometry" />
        </mxCell>
        <mxCell id="k8iHvR17kqA6kyOkdq-5-1" value="" style="rounded=1;whiteSpace=wrap;html=1;fillColor=none;strokeColor=#BD7000;fontColor=#000000;" vertex="1" parent="1">
          <mxGeometry x="-80" y="220" width="160" height="340" as="geometry" />
        </mxCell>
        <mxCell id="k8iHvR17kqA6kyOkdq-5-2" value="&lt;span style=&quot;font-size: 20px;&quot;&gt;Gold Layer&lt;/span&gt;" style="rounded=1;whiteSpace=wrap;html=1;fillColor=#f0a30a;strokeColor=#BD7000;glass=0;shadow=0;fillStyle=auto;gradientDirection=radial;fontColor=#000000;" vertex="1" parent="1">
          <mxGeometry x="-80" y="180" width="160" height="30" as="geometry" />
        </mxCell>
        <mxCell id="k8iHvR17kqA6kyOkdq-5-3" value="&lt;span style=&quot;font-size: 15px;&quot;&gt;fact_sales&lt;/span&gt;" style="rounded=1;whiteSpace=wrap;html=1;glass=0;shadow=0;fillStyle=auto;fillColor=#f0a30a;strokeColor=#BD7000;fontColor=#000000;" vertex="1" parent="1">
          <mxGeometry x="-70" y="280" width="140" height="30" as="geometry" />
        </mxCell>
        <mxCell id="k8iHvR17kqA6kyOkdq-5-4" value="&lt;font style=&quot;font-size: 15px;&quot;&gt;dim_customers&lt;/font&gt;" style="rounded=1;whiteSpace=wrap;html=1;glass=0;shadow=0;fillStyle=auto;fillColor=#f0a30a;strokeColor=#BD7000;fontColor=#000000;" vertex="1" parent="1">
          <mxGeometry x="-70" y="375" width="140" height="30" as="geometry" />
        </mxCell>
        <mxCell id="k8iHvR17kqA6kyOkdq-5-5" value="&lt;span style=&quot;font-size: 15px;&quot;&gt;dim_products&lt;/span&gt;" style="rounded=1;whiteSpace=wrap;html=1;glass=0;shadow=0;fillStyle=auto;fillColor=#f0a30a;strokeColor=#BD7000;fontColor=#000000;" vertex="1" parent="1">
          <mxGeometry x="-70" y="470" width="140" height="30" as="geometry" />
        </mxCell>
        <mxCell id="k8iHvR17kqA6kyOkdq-5-12" value="" style="endArrow=classic;html=1;rounded=0;exitX=1;exitY=0.5;exitDx=0;exitDy=0;entryX=0;entryY=0.5;entryDx=0;entryDy=0;jumpStyle=gap;" edge="1" parent="1" source="7J3vk4l10xJQg3FWzx_3-3" target="k8iHvR17kqA6kyOkdq-5-3">
          <mxGeometry width="50" height="50" relative="1" as="geometry">
            <mxPoint x="-140" y="320" as="sourcePoint" />
            <mxPoint x="-90" y="270" as="targetPoint" />
          </mxGeometry>
        </mxCell>
        <mxCell id="k8iHvR17kqA6kyOkdq-5-13" value="" style="endArrow=classic;html=1;rounded=0;exitX=1;exitY=0.5;exitDx=0;exitDy=0;entryX=0;entryY=0.5;entryDx=0;entryDy=0;jumpStyle=gap;" edge="1" parent="1" source="7J3vk4l10xJQg3FWzx_3-4" target="k8iHvR17kqA6kyOkdq-5-4">
          <mxGeometry width="50" height="50" relative="1" as="geometry">
            <mxPoint x="-120" y="340" as="sourcePoint" />
            <mxPoint x="-20" y="390" as="targetPoint" />
          </mxGeometry>
        </mxCell>
        <mxCell id="k8iHvR17kqA6kyOkdq-5-14" value="" style="endArrow=classic;html=1;rounded=0;exitX=1;exitY=0.5;exitDx=0;exitDy=0;jumpStyle=gap;" edge="1" parent="1" source="7J3vk4l10xJQg3FWzx_3-6">
          <mxGeometry width="50" height="50" relative="1" as="geometry">
            <mxPoint x="-120" y="440" as="sourcePoint" />
            <mxPoint x="-70" y="390" as="targetPoint" />
          </mxGeometry>
        </mxCell>
        <mxCell id="k8iHvR17kqA6kyOkdq-5-15" value="" style="endArrow=classic;html=1;rounded=0;exitX=1;exitY=0.5;exitDx=0;exitDy=0;entryX=0;entryY=0.5;entryDx=0;entryDy=0;jumpStyle=gap;" edge="1" parent="1" source="7J3vk4l10xJQg3FWzx_3-5" target="k8iHvR17kqA6kyOkdq-5-5">
          <mxGeometry width="50" height="50" relative="1" as="geometry">
            <mxPoint x="-150" y="360" as="sourcePoint" />
            <mxPoint x="-50" y="410" as="targetPoint" />
          </mxGeometry>
        </mxCell>
        <mxCell id="k8iHvR17kqA6kyOkdq-5-16" value="" style="endArrow=classic;html=1;rounded=0;exitX=1;exitY=0.5;exitDx=0;exitDy=0;entryX=0;entryY=0.5;entryDx=0;entryDy=0;jumpStyle=gap;" edge="1" parent="1" source="7J3vk4l10xJQg3FWzx_3-8" target="k8iHvR17kqA6kyOkdq-5-5">
          <mxGeometry width="50" height="50" relative="1" as="geometry">
            <mxPoint x="-140" y="520" as="sourcePoint" />
            <mxPoint x="-40" y="570" as="targetPoint" />
          </mxGeometry>
        </mxCell>
        <mxCell id="k8iHvR17kqA6kyOkdq-5-17" value="" style="endArrow=classic;html=1;rounded=0;exitX=1;exitY=0.5;exitDx=0;exitDy=0;entryX=0;entryY=0.5;entryDx=0;entryDy=0;jumpStyle=gap;" edge="1" parent="1" source="7J3vk4l10xJQg3FWzx_3-7" target="k8iHvR17kqA6kyOkdq-5-4">
          <mxGeometry width="50" height="50" relative="1" as="geometry">
            <mxPoint x="-140" y="450" as="sourcePoint" />
            <mxPoint x="-40" y="500" as="targetPoint" />
          </mxGeometry>
        </mxCell>
      </root>
    </mxGraphModel>
  </diagram>
</mxfile>
